<svg width="44" height="45" viewBox="0 0 44 45" fill="none" xmlns="http://www.w3.org/2000/svg">
<g clip-path="url(#clip0_149_283)">
<path d="M21.8071 0.826511H21.7084C9.76933 0.826511 0.0908203 10.505 0.0908203 22.4441V22.5428C0.0908203 34.4818 9.76933 44.1604 21.7084 44.1604H21.8071C33.7462 44.1604 43.4247 34.4818 43.4247 22.5428V22.4441C43.4247 10.505 33.7462 0.826511 21.8071 0.826511Z" fill="white"/>
<path d="M15.6396 22.0216C15.6693 22.0068 15.6989 21.9927 15.7279 21.9794C16.2306 21.7465 16.74 21.5286 17.2486 21.3106C17.2761 21.3106 17.322 21.2787 17.348 21.2683C17.3873 21.2512 17.4266 21.2349 17.4659 21.2179C17.5415 21.1852 17.6172 21.1534 17.692 21.1207C17.8433 21.0562 17.9938 20.9917 18.1451 20.9272L19.0504 20.5394C19.654 20.2814 20.2583 20.0226 20.8619 19.7646C21.4655 19.5065 22.0698 19.2477 22.6733 18.9897C23.2769 18.7317 23.8812 18.4729 24.4848 18.2149C25.0884 17.9568 25.6927 17.698 26.2963 17.44C26.4305 17.3822 26.5758 17.2961 26.7196 17.2709C26.8405 17.2494 26.9584 17.2079 27.08 17.1849C27.3106 17.1412 27.5649 17.1234 27.7859 17.219C27.8623 17.2524 27.9327 17.2991 27.9913 17.3577C28.2716 17.635 28.2323 18.0903 28.1729 18.4803C27.7599 21.1986 27.3469 23.9176 26.9332 26.6359C26.8768 27.0089 26.7997 27.4182 26.5053 27.654C26.2562 27.8534 25.9018 27.8757 25.5941 27.7911C25.2863 27.7059 25.015 27.5272 24.7488 27.3514C23.6447 26.6203 22.5399 25.8892 21.4358 25.1581C21.1733 24.9846 20.8812 24.7577 20.8841 24.4426C20.8856 24.2528 20.9991 24.0837 21.1147 23.9332C22.0742 22.6816 23.4586 21.8214 24.4885 20.6276C24.6338 20.4593 24.748 20.1553 24.5486 20.0582C24.4299 20.0004 24.2935 20.0789 24.1852 20.1538C22.8239 21.0992 21.4632 22.0454 20.1019 22.9908C19.6577 23.2992 19.1921 23.6166 18.6567 23.6922C18.1777 23.7604 17.6958 23.627 17.2323 23.4905C16.8438 23.3763 16.456 23.2592 16.0697 23.1383C15.8643 23.0745 15.6522 23.0056 15.4935 22.861C15.3349 22.7164 15.2437 22.4732 15.3393 22.2804C15.3994 22.1596 15.5158 22.0832 15.6381 22.0209L15.6396 22.0216Z" fill="#F89D25"/>
</g>
<defs>
<clipPath id="clip0_149_283">
<rect width="43.3339" height="43.3339" fill="white" transform="translate(0.0908203 0.826511)"/>
</clipPath>
</defs>
</svg>
