<svg width="44" height="45" viewBox="0 0 44 45" fill="none" xmlns="http://www.w3.org/2000/svg">
<g clip-path="url(#clip0_149_280)">
<path d="M43.8773 22.4942C43.8773 33.4374 35.7656 42.4843 25.2278 43.9524C24.2424 44.089 23.2344 44.1604 22.2111 44.1604C21.0299 44.1604 19.87 44.0662 18.7405 43.8841C8.42436 42.2232 0.544922 33.2779 0.544922 22.4942C0.544922 10.5278 10.2462 0.826508 22.2126 0.826508C34.179 0.826508 43.8803 10.5278 43.8803 22.4942H43.8773Z" fill="white"/>
<path d="M23.6851 18.0023V20.3075H26.5369L26.0853 23.4129H23.6851V30.5675C23.2039 30.6342 22.7116 30.6691 22.2118 30.6691C21.6349 30.6691 21.0684 30.6231 20.5168 30.5341V23.4129H17.8867V20.3075H20.5168V17.4869C20.5168 15.737 21.9352 14.3178 23.6859 14.3178V14.3193C23.6911 14.3193 23.6955 14.3178 23.7007 14.3178H26.5376V17.0035H24.6839C24.133 17.0035 23.6859 17.4506 23.6859 18.0015L23.6851 18.0023Z" fill="#F8A224"/>
</g>
<defs>
<clipPath id="clip0_149_280">
<rect width="43.3354" height="43.3339" fill="white" transform="translate(0.544922 0.826508)"/>
</clipPath>
</defs>
</svg>
