<svg width="44" height="45" viewBox="0 0 44 45" fill="none" xmlns="http://www.w3.org/2000/svg">
<g clip-path="url(#clip0_149_273)">
<path d="M21.7163 0.826508H21.6176C9.67853 0.826508 0 10.505 0 22.4441V22.5428C0 34.4818 9.67853 44.1604 21.6176 44.1604H21.7163C33.6553 44.1604 43.3339 34.4818 43.3339 22.5428V22.4441C43.3339 10.505 33.6553 0.826508 21.7163 0.826508Z" fill="white"/>
<rect x="16.001" y="16.9046" width="11.2791" height="10.7666" rx="1.82089" fill="#F8A324"/>
<path d="M24.9412 16.2165H18.3924C16.5832 16.2165 15.1113 17.6883 15.1113 19.4975V25.4888C15.1113 27.298 16.5832 28.7698 18.3924 28.7698H24.9412C26.7504 28.7698 28.2223 27.298 28.2223 25.4888V19.4975C28.2223 17.6883 26.7504 16.2165 24.9412 16.2165ZM16.2688 19.4975C16.2688 18.3267 17.2216 17.3739 18.3924 17.3739H24.9412C26.112 17.3739 27.0648 18.3267 27.0648 19.4975V25.4888C27.0648 26.6596 26.112 27.6124 24.9412 27.6124H18.3924C17.2216 27.6124 16.2688 26.6596 16.2688 25.4888V19.4975Z" fill="#F8A324"/>
<path d="M21.6667 25.5442C23.3491 25.5442 24.7187 24.1754 24.7187 22.4922C24.7187 20.809 23.3499 19.4403 21.6667 19.4403C19.9835 19.4403 18.6147 20.809 18.6147 22.4922C18.6147 24.1754 19.9835 25.5442 21.6667 25.5442ZM21.6667 20.5985C22.7115 20.5985 23.5612 21.4482 23.5612 22.493C23.5612 23.5377 22.7115 24.3875 21.6667 24.3875C20.622 24.3875 19.7722 23.5377 19.7722 22.493C19.7722 21.4482 20.622 20.5985 21.6667 20.5985Z" fill="white"/>
<path d="M25.001 19.9331C25.4541 19.9331 25.8233 19.5646 25.8233 19.1108C25.8233 18.6571 25.4548 18.2885 25.001 18.2885C24.5472 18.2885 24.1787 18.6571 24.1787 19.1108C24.1787 19.5646 24.5472 19.9331 25.001 19.9331Z" fill="white"/>
</g>
<defs>
<clipPath id="clip0_149_273">
<rect width="43.3339" height="43.3339" fill="white" transform="translate(0 0.826508)"/>
</clipPath>
</defs>
</svg>
